<svg width="36" height="10" viewBox="0 0 36 10" fill="none" xmlns="http://www.w3.org/2000/svg">
<path d="M0.841619 9H2.15838V5.1946H6.50923V9H7.83026V0.272727H6.50923V4.06534H2.15838V0.272727H0.841619V9ZM11.5504 9.14489C12.6328 9.14489 13.2422 8.59517 13.4851 8.10511H13.5362V9H14.7805V4.65341C14.7805 2.74858 13.2805 2.36932 12.2408 2.36932C11.0561 2.36932 9.9652 2.84659 9.53906 4.03977L10.7365 4.3125C10.924 3.84801 11.4013 3.40057 12.2578 3.40057C13.0803 3.40057 13.5021 3.83097 13.5021 4.57244V4.60227C13.5021 5.06676 13.0249 5.05824 11.8487 5.1946C10.6087 5.33949 9.33878 5.66335 9.33878 7.15057C9.33878 8.4375 10.3061 9.14489 11.5504 9.14489ZM11.8274 8.12216C11.1072 8.12216 10.5874 7.7983 10.5874 7.16761C10.5874 6.4858 11.1925 6.2429 11.9297 6.14489C12.343 6.08949 13.3232 5.97869 13.5064 5.79545V6.6392C13.5064 7.41477 12.8885 8.12216 11.8274 8.12216ZM17.7262 7.21449V2.45455H16.4776V9H17.8626L20.7347 4.2358V9H21.9833V2.45455H20.6112L17.7262 7.21449ZM20.0657 0.238636C20.0657 0.669034 19.8271 1.0483 19.2305 1.0483C18.6254 1.0483 18.3995 0.664772 18.3995 0.238636H17.3555C17.3555 1.19744 18.0842 1.85795 19.2305 1.85795C20.3853 1.85795 21.114 1.19744 21.114 0.238636H20.0657ZM22.8846 3.55398H25.0281V9H26.2724V3.55398H28.4073V2.45455H22.8846V3.55398ZM31.0036 7.21449V2.45455H29.755V9H31.1399L34.0121 4.2358V9H35.2607V2.45455H33.8885L31.0036 7.21449Z" fill="white"/>
</svg>
